<svg width="320" height="223" viewBox="0 0 320 223" fill="none" xmlns="http://www.w3.org/2000/svg">
<g filter="url(#filter0_d_2350_724)">
<path d="M4.36496 61.0583L4.65174 61.1829L52.5873 23.9452L60.4484 27.3161C60.4452 27.3194 60.4402 27.321 60.4369 27.3243L66.2169 29.8119C66.2136 29.8136 66.212 29.8152 66.2087 29.8169L71.9853 32.3078C71.9837 32.3094 71.9821 32.3111 71.9804 32.3127L77.7554 34.8036C77.7538 34.8053 77.7521 34.8069 77.7505 34.8069L83.5239 37.2995C83.5239 37.3011 83.5223 37.3011 83.5206 37.3028L89.2923 39.7953C89.2923 39.797 89.2907 39.797 89.2891 39.7986L95.0624 42.2911C95.0608 42.2928 95.0592 42.2928 95.0592 42.2944L100.831 44.7886L100.829 44.7903L106.601 47.2845L89.7479 97.8093H89.8741L106.601 47.2845H116.609L116.617 47.2484L106.601 47.2845L52.3923 23.7502L106.07 0.596046L213.424 0.596046L267.101 23.7502L240.215 35.3477L242.899 34.1973H242.899L252.78 29.9611L267.27 23.7502L315.296 61.0583L230.175 97.8076L230.176 97.8093H230.174L230.094 97.9404L230.094 97.9436L230.176 97.8093L297.859 68.5868H297.858L306.578 64.8225H306.578L315.298 61.0583L159.748 214.35L229.946 98.1878H229.944L159.746 214.35L4.56654 61.2566L4.55998 61.2533H4.56161L4.36496 61.0583Z" fill="#9DDFF7"/>
<path d="M204.778 4.35528L114.715 4.35528L69.683 23.7812L115.16 43.5234L204.778 43.2055L249.811 23.7812L204.778 4.35528ZM110.88 45.4031L61.0369 23.7648L110.392 2.47724L209.101 2.47724L258.456 23.7648L209.101 45.054L110.88 45.4031Z" fill="#5CB2E6"/>
<path d="M200.456 6.23496L119.037 6.23496L78.3271 23.796L119.439 41.6438L200.456 41.357L241.165 23.796L200.456 6.23496ZM115.16 43.5234L69.6826 23.7812L114.714 4.35531L204.778 4.35531L249.81 23.7812L204.778 43.2055L115.16 43.5234Z" fill="#65B8E9"/>
<path d="M196.133 8.1163L123.359 8.1163L86.9718 23.8107L123.719 39.7641L196.133 39.5069L232.52 23.8107L196.133 8.1163ZM119.439 41.6438L78.3273 23.796L119.038 6.23499L200.456 6.23499L241.165 23.796L200.456 41.357L119.439 41.6438Z" fill="#6EBEEB"/>
<path d="M191.811 9.99598L127.682 9.99598L95.6181 23.8272L128 37.8845L191.811 37.6583L223.875 23.8272L191.811 9.99598ZM123.72 39.7642L86.972 23.8108L123.359 8.11633L196.133 8.11633L232.52 23.8108L196.133 39.5069L123.72 39.7642Z" fill="#77C4ED"/>
<path d="M187.489 11.8757L132.005 11.8757L104.263 23.8419L132.279 36.0032L187.489 35.8082L215.23 23.8419L187.489 11.8757ZM128 37.8845L95.6182 23.8272L127.682 9.996L191.811 9.996L223.875 23.8272L191.811 37.6584L128 37.8845Z" fill="#81CBF0"/>
<path d="M183.166 13.7553L136.327 13.7553L112.909 23.8583L136.559 34.1252L183.166 33.9596L206.585 23.8583L183.166 13.7553ZM132.279 36.0032L104.262 23.8419L132.005 11.8756L187.489 11.8756L215.23 23.8419L187.489 35.8082L132.279 36.0032Z" fill="#8AD1F2"/>
<path d="M178.843 15.6351L140.65 15.6351L121.553 23.8731L140.84 32.2456L178.843 32.1112L197.939 23.8731L178.843 15.6351ZM136.559 34.1252L112.909 23.8584L136.327 13.7554L183.166 13.7554L206.585 23.8584L183.166 33.9597L136.559 34.1252Z" fill="#93D8F5"/>
<path d="M218.197 44.787L223.137 42.6697L246.755 90.6495L255.047 87.0704L315.296 61.0583L238.465 94.2285L218.197 44.787Z" fill="#93D8F5"/>
<path d="M228.078 40.5507L255.047 87.0703L246.756 90.6494L223.138 42.6696L223.137 42.668L233.018 38.4334H233.019L228.078 40.5507Z" fill="#8AD1F2"/>
<path d="M255.047 87.0703L228.077 40.5507L233.018 38.4334L263.338 83.4896L315.296 61.0582L255.047 87.0703Z" fill="#81CBF0"/>
<path d="M233.018 38.4335H233.018L240.215 35.3477L242.899 34.1973H242.899L237.959 36.3162L271.63 79.9107L279.921 76.3316H279.921L315.297 61.0583L263.338 83.4897L233.018 38.4335Z" fill="#77C4ED"/>
<path d="M271.629 79.9106L237.959 36.3162L242.899 34.1973L279.921 76.3316L271.629 79.9106Z" fill="#6EBEEB"/>
<path d="M279.921 76.3315L242.899 34.1972H242.899H242.899L252.78 29.961H252.78L247.84 32.08L288.212 72.7508L315.297 61.0582L279.921 76.3315H279.921Z" fill="#65B8E9"/>
<path d="M247.839 32.0798L252.78 29.9609L296.503 69.1717L315.296 61.0581L288.212 72.7507L247.839 32.0798Z" fill="#5CB2E6"/>
<path d="M252.78 29.9611H252.78L267.27 23.7502L315.297 61.0584L296.503 69.1719L252.78 29.9611Z" fill="#53ACE4"/>
<path d="M199.669 98.2304L213.243 98.2108L213.257 98.2517L214.173 98.2272L159.746 214.35L198.399 98.2468L199.669 98.2304Z" fill="#93D8F5"/>
<path d="M184.354 98.2515L196.744 98.2335L196.753 98.2679L198.398 98.2466L159.746 214.35L182.61 98.2646L184.354 98.2515Z" fill="#8AD1F2"/>
<path d="M168.6 98.2731L180.244 98.2567L180.249 98.2845L182.61 98.2649L159.746 214.35L166.808 98.2829L168.6 98.2731Z" fill="#81CBF0"/>
<path d="M89.7467 97.8091H89.8726V97.8108L89.7467 97.8091Z" fill="#77C4ED"/>
<path d="M138.662 98.3157L147.241 98.3025V98.3173L150.992 98.3025L159.746 214.35L135.161 98.3255L138.662 98.3157Z" fill="#6EBEEB"/>
<path d="M89.7467 97.8092L89.8726 97.8108V97.8125L89.7467 97.8108V97.8092Z" fill="#6EBEEB"/>
<path d="M125.586 98.3337L132.713 98.3239L132.711 98.3337L135.161 98.3255L159.746 214.35L119.318 98.3484L125.586 98.3337Z" fill="#65B8E9"/>
<path d="M89.7468 97.8109L89.8727 97.8125L89.871 97.8142L89.7451 97.8125L89.7468 97.8109Z" fill="#65B8E9"/>
<path d="M89.7451 97.8124L89.871 97.814L89.8677 97.824L89.7434 97.819L89.7451 97.8124Z" fill="#5CB2E6"/>
<path d="M103.015 98.3648L104.026 98.3632V98.3665L111.255 98.3533L118.371 98.3435L118.369 98.3501L119.318 98.3484L159.746 214.35L103.466 98.3828L103.015 98.3648Z" fill="#5CB2E6"/>
<path d="M103.015 98.3648L103.466 98.3828L159.746 214.35L89.8347 98.3828L103.015 98.3648Z" fill="#53ACE4"/>
<path d="M80.2479 93.9303L89.5791 97.9584L89.7364 98.2206L89.6823 98.3828H89.8347L159.746 214.35L80.1676 93.8959L80.2479 93.9303Z" fill="#97DBF6"/>
<path d="M80.1676 93.8959L159.746 214.35L70.7529 89.8318L80.1676 93.8959Z" fill="#8ED4F3"/>
<path d="M70.7529 89.8318L159.746 214.35L61.3349 85.766L70.7529 89.8318Z" fill="#86CEF1"/>
<path d="M61.3349 85.766L159.746 214.35L51.9153 81.6985L61.3349 85.766Z" fill="#7DC8EF"/>
<path d="M39.459 76.3201L42.4908 77.6295L159.746 214.35L33.0646 73.5605L39.459 76.3201Z" fill="#6CBCEA"/>
<path d="M26.1736 70.5845L33.0646 73.5605L159.746 214.35L23.6351 69.4898L26.1736 70.5845Z" fill="#64B7E8"/>
<path d="M23.6351 69.4898L159.746 214.35L14.2024 65.4174L4.56645 61.2566L4.55988 61.2533L23.6351 69.4898Z" fill="#5CB1E6"/>
<path d="M4.6501 61.1843L4.36441 61.0579L4.65173 61.1827L4.6501 61.1843Z" fill="#5CB1E6"/>
<path d="M4.56148 61.2532L4.36446 61.0578L4.65015 61.1842L4.56148 61.2532Z" fill="#53ACE4"/>
<path d="M159.746 214.35L4.56645 61.2566L14.2024 65.4174L159.746 214.35Z" fill="#53ACE4"/>
<path d="M297.858 68.5868L306.578 64.8226H306.578L159.748 214.35L297.858 68.5868Z" fill="#93D8F5"/>
<path d="M289.139 72.3527L280.42 76.1169H280.42L271.699 79.8812H271.7L262.98 83.6454H262.98L230.176 97.8093L297.859 68.5868H297.858L159.748 214.35L289.139 72.3527Z" fill="#8AD1F2"/>
<path d="M289.139 72.3524L159.748 214.35L280.419 76.1167L289.139 72.3524Z" fill="#81CBF0"/>
<path d="M280.42 76.117H280.42L159.748 214.35L271.699 79.8812L280.42 76.117Z" fill="#77C4ED"/>
<path d="M271.7 79.8812H271.7L159.748 214.35L262.98 83.6454L271.7 79.8812Z" fill="#6EBEEB"/>
<path d="M262.98 83.6454L159.748 214.35L254.261 87.4113L230.176 97.8093L262.98 83.6454H262.98Z" fill="#65B8E9"/>
<path d="M159.748 214.35L245.541 91.1755L230.176 97.8093L254.261 87.4113L159.748 214.35Z" fill="#5CB2E6"/>
<path d="M159.748 214.35L229.946 98.1878H230.175L230.094 97.9437L230.175 97.8093L245.541 91.1756L159.748 214.35Z" fill="#53ACE4"/>
<path d="M89.7479 97.8091V97.8108L89.7463 97.8124L89.7447 97.819L89.8676 97.8239L89.7365 98.2205L89.5792 97.9583L80.248 93.9302C82.1457 92.3045 98.8496 46.3535 100.829 44.7901L106.601 47.2843L89.7479 97.8091Z" fill="#53ACE4"/>
<path d="M80.2479 93.9302L80.1675 93.8958L70.7528 89.8316L61.3349 85.7658L51.9152 81.6984L43.2675 77.9653L51.9415 81.7099C51.9431 81.7099 51.9431 81.7099 51.9431 81.7099L61.3775 85.7839C61.3775 85.7839 61.3775 85.7839 61.3775 85.7822L70.8119 89.8562C74.6056 86.6082 91.1129 45.385 95.059 42.2943L100.831 44.7885L100.829 44.7901C98.8495 46.3535 82.1455 92.3045 80.2479 93.9302Z" fill="#5CB1E6"/>
<path d="M26.1735 70.5844L39.459 76.3201L33.0645 73.5604L26.1735 70.5844Z" fill="#5CB1E6"/>
<path d="M70.8121 89.8562L61.3777 85.7822C67.0675 80.9102 83.3797 44.4132 89.2891 39.7985L95.0625 42.291C95.0609 42.2927 95.0592 42.2927 95.0592 42.2943C91.1131 45.385 74.6058 86.6082 70.8121 89.8562Z" fill="#64B7E8"/>
<path d="M61.3773 85.7823C61.3773 85.7839 61.3773 85.7839 61.3773 85.7839L51.9429 81.71C59.5287 75.2123 75.6411 43.4497 83.5203 37.3027L89.292 39.7953C89.292 39.7969 89.2904 39.7969 89.2887 39.7985C83.3793 44.4133 67.067 80.9103 61.3773 85.7823Z" fill="#6CBCEA"/>
<path d="M51.9432 81.71C51.9432 81.71 51.9432 81.71 51.9415 81.71L43.2675 77.9655L51.9153 81.6986L159.746 214.35L42.4908 77.6295L39.459 76.3201L26.1736 70.5845L23.6351 69.4898L4.55988 61.2533L23.6368 69.4898L33.0711 73.5637C33.0711 73.5637 33.0711 73.5637 33.0711 73.5621L42.5071 77.6361C51.9907 69.5144 67.9014 42.4862 77.7504 34.8069L83.5238 37.2995C83.5238 37.3011 83.5222 37.3011 83.5206 37.3028C75.6414 43.4498 59.529 75.2123 51.9432 81.71Z" fill="#74C2ED"/>
<path d="M42.5072 77.636L33.0712 73.562C44.4524 63.8163 60.1633 41.5242 71.9804 32.3127L77.7554 34.8036C77.7538 34.8052 77.7521 34.8068 77.7505 34.8068C67.9015 42.4861 51.9908 69.5143 42.5072 77.636Z" fill="#7DC8EF"/>
<path d="M33.0712 73.5621C33.0712 73.5637 33.0712 73.5637 33.0712 73.5637L23.6368 69.4898C36.9125 58.12 52.425 40.5623 66.2087 29.8169L71.9854 32.3078C71.9837 32.3094 71.9821 32.3111 71.9804 32.3127C60.1633 41.5242 44.4525 63.8163 33.0712 73.5621Z" fill="#86CEF1"/>
<path d="M23.6371 69.4897L4.56024 61.2533L14.2011 65.4158C29.3744 52.4236 44.6854 39.6003 60.4372 27.3243L66.2172 29.8119C66.2139 29.8136 66.2122 29.8152 66.209 29.8169C52.4253 40.5622 36.9127 58.12 23.6371 69.4897Z" fill="#8ED4F3"/>
<path d="M4.56002 61.2533H4.56165L4.65015 61.1845L4.65178 61.1828L52.5873 23.9452L60.4485 27.3161C60.4452 27.3194 60.4403 27.321 60.437 27.3243C44.6852 39.6003 29.3742 52.4236 14.2009 65.4158L4.56002 61.2533Z" fill="#97DBF6"/>
<path d="M118.371 98.3402L111.255 98.3533L104.027 98.3665V98.3632L116.609 47.2845L116.617 47.2484L116.62 47.237H119.923H126.633L118.371 98.3402Z" fill="#93D8F5"/>
<path d="M227.905 97.9042H228.061L228.05 97.8697L228.978 97.8583L229.071 98.1401L216.628 98.1631L218.44 98.1156L227.968 98.0926L227.905 97.9042Z" fill="#93D8F5"/>
<path d="M206.505 98.1435L213.214 98.1271L213.229 98.1697L203.038 98.1877L206.505 98.1435Z" fill="#93D8F5"/>
<path d="M194.353 98.1714L196.726 98.1665L196.735 98.1993L189.283 98.2124L194.353 98.1714Z" fill="#93D8F5"/>
<path d="M180.236 98.209L180.239 98.2287L175.008 98.2385L180.236 98.209Z" fill="#93D8F5"/>
<path d="M160.149 98.2649L163.74 98.2501L163.741 98.2583L160.149 98.2649Z" fill="#93D8F5"/>
<path d="M132.713 98.3173L125.586 98.3337L119.318 98.3485L118.369 98.3501L118.371 98.3436V98.3403L126.633 47.237L126.637 47.2124L126.642 47.1895H133.244H136.658L132.713 98.3173Z" fill="#8AD1F2"/>
<path d="M226.833 97.9518H227.004L226.991 97.9125L227.905 97.9043L227.968 98.0928L218.441 98.1157L220.341 98.0649L226.864 98.0453L226.833 97.9518Z" fill="#8AD1F2"/>
<path d="M210.19 98.096L213.201 98.0878L213.214 98.1272L206.505 98.1436L210.19 98.096Z" fill="#8AD1F2"/>
<path d="M196.723 98.1534L196.727 98.1665L194.354 98.1714L196.723 98.1534Z" fill="#8AD1F2"/>
<path d="M147.241 98.2895L138.662 98.3157L135.161 98.3255L132.711 98.3337L132.713 98.3239V98.3174L136.658 47.1895L136.659 47.1764L136.661 47.1403H146.816H146.869L147.241 98.2895Z" fill="#81CBF0"/>
<path d="M225.932 97.9565L226.832 97.9516L226.864 98.045L220.341 98.0647L222.354 98.0123L225.946 97.9975L225.932 97.9565Z" fill="#81CBF0"/>
<path d="M213.19 98.0583L213.2 98.0878L210.19 98.0959L213.19 98.0583Z" fill="#81CBF0"/>
<path d="M147.241 98.3173V98.2894L146.869 47.1403V47.0927H159.055L163.74 98.2501L160.149 98.2649L152.521 98.296L163.743 98.2796L163.745 98.3009L166.808 98.2829L159.746 214.35L150.992 98.3026L147.241 98.3173Z" fill="#77C4ED"/>
<path d="M225.946 97.9977L222.354 98.0125L224.107 97.9666L225.932 97.9567L225.946 97.9977Z" fill="#77C4ED"/>
<path d="M175.008 98.2385L168.6 98.2729L166.807 98.2828L163.745 98.3008L163.743 98.2795L163.741 98.2582L163.74 98.25L159.054 47.0926L159.05 47.0468H171.24L180.235 98.209L175.008 98.2385Z" fill="#6EBEEB"/>
<path d="M227.003 97.9518H226.832L225.932 97.9567L224.107 97.9666L225.855 97.9207L226.99 97.9125L227.003 97.9518Z" fill="#6EBEEB"/>
<path d="M194.353 98.1714L189.283 98.2123L184.354 98.2516L182.61 98.2648L180.249 98.2844L180.244 98.2566L180.239 98.2287L180.236 98.209L171.24 47.0468L171.232 46.9992H183.426L196.723 98.1533L194.353 98.1714Z" fill="#65B8E9"/>
<path d="M228.061 97.9043H227.905L226.991 97.9125L225.856 97.9207L227.595 97.8764L228.049 97.8698L228.061 97.9043Z" fill="#65B8E9"/>
<path d="M228.977 97.8584L228.049 97.8699L227.595 97.8765L229.111 97.8355L229.118 97.8568L228.977 97.8584Z" fill="#5CB2E6"/>
<path d="M206.505 98.1435L203.038 98.1878L199.669 98.2304L198.399 98.2468L196.753 98.2681L196.744 98.2337L196.735 98.1993L196.727 98.1665L196.723 98.1534L183.426 46.9993L183.413 46.9518L195.611 46.9518L213.191 98.0583L210.19 98.096L206.505 98.1435Z" fill="#5CB2E6"/>
<path d="M258.456 23.7649L209.101 2.47732H110.391L61.0366 23.7649L110.88 45.4032L209.101 45.0541L258.456 23.7649ZM230.05 97.8125L229.111 97.8355L227.595 97.8764L225.855 97.9207L224.107 97.9666L222.354 98.0125L220.341 98.0649L218.44 98.1157L216.628 98.1632L214.864 98.2091L214.172 98.2271L213.257 98.2517L213.243 98.2107L213.229 98.1698L213.214 98.1272L213.2 98.0878L213.19 98.0583L195.611 46.9518H183.413L183.426 46.9993L171.232 46.9993L171.24 47.0468H159.05L159.054 47.0927H146.869V47.1403H146.816H136.661L136.659 47.1763L133.244 47.1894H126.641L126.636 47.2123L119.922 47.2369H116.62L116.617 47.2484L106.601 47.2845L52.3921 23.7502L106.07 0.596021L213.424 0.596021L267.101 23.7502L240.215 35.3477L233.018 38.4335L223.137 42.6681L213.257 46.9043H213.257H213.256L216.64 57.0859L230.175 97.8076L230.175 97.8092H230.173L230.05 97.8125Z" fill="#53ACE4"/>
</g>
<defs>
<filter id="filter0_d_2350_724" x="0.36438" y="0.595947" width="318.933" height="221.754" filterUnits="userSpaceOnUse" color-interpolation-filters="sRGB">
<feFlood flood-opacity="0" result="BackgroundImageFix"/>
<feColorMatrix in="SourceAlpha" type="matrix" values="0 0 0 0 0 0 0 0 0 0 0 0 0 0 0 0 0 0 127 0" result="hardAlpha"/>
<feOffset dy="4"/>
<feGaussianBlur stdDeviation="2"/>
<feComposite in2="hardAlpha" operator="out"/>
<feColorMatrix type="matrix" values="0 0 0 0 0 0 0 0 0 0 0 0 0 0 0 0 0 0 0.25 0"/>
<feBlend mode="normal" in2="BackgroundImageFix" result="effect1_dropShadow_2350_724"/>
<feBlend mode="normal" in="SourceGraphic" in2="effect1_dropShadow_2350_724" result="shape"/>
</filter>
</defs>
</svg>
