<svg width="20" height="21" viewBox="0 0 20 21" fill="none" xmlns="http://www.w3.org/2000/svg">
<path fill-rule="evenodd" clip-rule="evenodd" d="M16.0593 7.45905C16.1485 7.16202 16.0593 6.9541 15.6435 6.9541H14.2574C13.9009 6.9541 13.7425 7.14222 13.6534 7.35014C13.6534 7.35014 12.9504 9.07291 11.9504 10.1818C11.6237 10.5086 11.4851 10.6076 11.3069 10.6076C11.2178 10.6076 11.089 10.5086 11.089 10.2115V7.45905C11.089 7.10262 10.99 6.9541 10.693 6.9541H8.51479C8.29697 6.9541 8.15835 7.12242 8.15835 7.27093C8.15835 7.60757 8.6534 7.68678 8.71281 8.61747V10.6571C8.71281 11.1026 8.6336 11.1818 8.45538 11.1818C7.99004 11.1818 6.84152 9.45905 6.16825 7.47885C6.02964 7.11252 5.90093 6.9541 5.54449 6.9541H4.15835C3.76231 6.9541 3.68311 7.14222 3.68311 7.35014C3.68311 7.71648 4.14845 9.53826 5.87122 11.9442C7.01974 13.5878 8.6336 14.4789 10.0989 14.4789C10.9801 14.4789 11.089 14.2808 11.089 13.9442V12.6967C11.089 12.3006 11.1683 12.2214 11.4554 12.2214C11.6633 12.2214 12.0098 12.3204 12.8316 13.1125C13.7722 14.0531 13.9306 14.4789 14.4554 14.4789H15.8415C16.2376 14.4789 16.4356 14.2808 16.3168 13.8947C16.1881 13.5086 15.7425 12.9442 15.1485 12.2709C14.8217 11.8848 14.3366 11.4789 14.198 11.2709C13.99 11.0036 14.0494 10.8848 14.198 10.6571C14.198 10.6472 15.891 8.27093 16.0593 7.45905Z" fill="white"/>
</svg>
