<svg width="21" height="18" viewBox="0 0 21 18" fill="none" xmlns="http://www.w3.org/2000/svg">
<path fill-rule="evenodd" clip-rule="evenodd" d="M15.502 17.4018C15.7703 17.5918 16.1161 17.6393 16.4245 17.5226C16.7328 17.4051 16.9595 17.1418 17.0278 16.8226C17.752 13.4193 19.5086 4.80515 20.1678 1.70931C20.2178 1.47598 20.1345 1.23348 19.9511 1.07765C19.7678 0.921813 19.5136 0.876813 19.287 0.96098C15.7928 2.25431 5.03197 6.29181 0.633639 7.91931C0.354472 8.02265 0.172806 8.29098 0.181972 8.58515C0.191972 8.88015 0.390306 9.13598 0.676139 9.22181C2.64864 9.81181 5.23781 10.6326 5.23781 10.6326C5.23781 10.6326 6.44781 14.2868 7.07864 16.1451C7.15781 16.3785 7.3403 16.5618 7.58114 16.6251C7.82114 16.6876 8.07781 16.6218 8.25697 16.4526C9.2703 15.496 10.837 14.0168 10.837 14.0168C10.837 14.0168 13.8136 16.1993 15.502 17.4018ZM6.32697 10.171L7.72614 14.786L8.03697 11.8635C8.03697 11.8635 13.4428 6.98765 16.5245 4.20848C16.6145 4.12681 16.627 3.99015 16.552 3.89431C16.4778 3.79848 16.3411 3.77598 16.2386 3.84098C12.667 6.12181 6.32697 10.171 6.32697 10.171Z" fill="white"/>
</svg>
